{
  "accessors": [
    {
      "bufferView": 2,
      "componentType": 5126,
      "count": 1037,
      "max": [
        532.643798828125,
        172.87210083007813,
        556.69580078125
      ],
      "min": [
        26.487991333007813,
        0.0,
        146.66981506347656
      ],
      "type": "VEC3"
    },
    {
      "bufferView": 2,
      "byteOffset": 12444,
      "componentType": 5126,
      "count": 1037,
      "max": [
        1.0,
        1.0,
        0.9999964237213135
      ],
      "min": [
        -0.9999898672103882,
        -1.0,
        -0.9999964237213135
      ],
      "type": "VEC3"
    },
    {
      "bufferView": 3,
      "componentType": 5126,
      "count": 1037,
      "max": [
        0.9999998807907104,
        1.0,
        0.7745614051818848,
        1.0
      ],
      "min": [
        -0.9999995231628418,
        -0.9999892115592957,
        -0.7831407189369202,
        -1.0
      ],
      "type": "VEC4"
    },
    {
      "bufferView": 1,
      "componentType": 5126,
      "count": 1037,
      "max": [
        0.9049000144004822,
        0.9975000023841858
      ],
      "min": [
        0.6676999926567078,
        0.4726000130176544
      ],
      "type": "VEC2"
    },
    {
      "bufferView": 0,
      "componentType": 5125,
      "count": 5304,
      "type": "SCALAR"
    },
    {
      "bufferView": 2,
      "byteOffset": 24888,
      "componentType": 5126,
      "count": 2456,
      "max": [
        528.7695922851563,
        175.51629638671875,
        702.8925170898438
      ],
      "min": [
        22.942092895507813,
        150.7626953125,
        1.003021240234375
      ],
      "type": "VEC3"
    },
    {
      "bufferView": 2,
      "byteOffset": 54360,
      "componentType": 5126,
      "count": 2456,
      "max": [
        0.9999065399169922,
        1.0,
        0.9999604225158691
      ],
      "min": [
        -0.9999065399169922,
        -0.8796287178993225,
        -0.9999604225158691
      ],
      "type": "VEC3"
    },
    {
      "bufferView": 3,
      "byteOffset": 16592,
      "componentType": 5126,
      "count": 2456,
      "max": [
        1.0,
        0.9999460577964783,
        0.8340528607368469,
        -1.0
      ],
      "min": [
        -0.8272383213043213,
        -0.9999436140060425,
        -0.7874813675880432,
        -1.0
      ],
      "type": "VEC4"
    },
    {
      "bufferView": 1,
      "byteOffset": 8296,
      "componentType": 5126,
      "count": 2456,
      "max": [
        0.35120001435279846,
        0.49559998512268066
      ],
      "min": [
        0.0020000000949949026,
        0.0020000000949949026
      ],
      "type": "VEC2"
    },
    {
      "bufferView": 0,
      "byteOffset": 21216,
      "componentType": 5125,
      "count": 14499,
      "type": "SCALAR"
    },
    {
      "bufferView": 2,
      "byteOffset": 83832,
      "componentType": 5126,
      "count": 2456,
      "max": [
        528.7695922851563,
        28.917503356933594,
        702.8925170898438
      ],
      "min": [
        22.942092895507813,
        4.163902282714844,
        1.003021240234375
      ],
      "type": "VEC3"
    },
    {
      "bufferView": 2,
      "byteOffset": 113304,
      "componentType": 5126,
      "count": 2456,
      "max": [
        0.9999065399169922,
        0.8796287178993225,
        0.9999604225158691
      ],
      "min": [
        -0.9999065399169922,
        -1.0,
        -0.9999604225158691
      ],
      "type": "VEC3"
    },
    {
      "bufferView": 3,
      "byteOffset": 55888,
      "componentType": 5126,
      "count": 2456,
      "max": [
        1.0,
        0.9999436140060425,
        0.8340528607368469,
        1.0
      ],
      "min": [
        -0.8272386193275452,
        -0.9999459981918335,
        -0.7874822616577148,
        1.0
      ],
      "type": "VEC4"
    },
    {
      "bufferView": 1,
      "byteOffset": 27944,
      "componentType": 5126,
      "count": 2456,
      "max": [
        0.35120001435279846,
        0.49559998512268066
      ],
      "min": [
        0.0020000000949949026,
        0.0020000000949949026
      ],
      "type": "VEC2"
    },
    {
      "bufferView": 0,
      "byteOffset": 79212,
      "componentType": 5125,
      "count": 14499,
      "type": "SCALAR"
    },
    {
      "bufferView": 2,
      "byteOffset": 142776,
      "componentType": 5126,
      "count": 2509,
      "max": [
        105.86549377441406,
        172.8343048095703,
        703.890625
      ],
      "min": [
        0.0,
        4.240303039550781,
        0.0
      ],
      "type": "VEC3"
    },
    {
      "bufferView": 2,
      "byteOffset": 172884,
      "componentType": 5126,
      "count": 2509,
      "max": [
        0.9874305725097656,
        0.9999996423721313,
        0.9998676776885986
      ],
      "min": [
        -1.0,
        -0.9999996423721313,
        -0.9998676776885986
      ],
      "type": "VEC3"
    },
    {
      "bufferView": 3,
      "byteOffset": 95184,
      "componentType": 5126,
      "count": 2509,
      "max": [
        0.9999999403953552,
        0.9899040460586548,
        0.8964812755584717,
        1.0
      ],
      "min": [
        -0.9985677599906921,
        -1.0,
        -0.8908525705337524,
        -1.0
      ],
      "type": "VEC4"
    },
    {
      "bufferView": 1,
      "byteOffset": 47592,
      "componentType": 5126,
      "count": 2509,
      "max": [
        0.9034000039100647,
        0.9970999956130981
      ],
      "min": [
        0.6644999980926514,
        0.3228999972343445
      ],
      "type": "VEC2"
    },
    {
      "bufferView": 0,
      "byteOffset": 137208,
      "componentType": 5125,
      "count": 14052,
      "type": "SCALAR"
    },
    {
      "bufferView": 2,
      "byteOffset": 202992,
      "componentType": 5126,
      "count": 2435,
      "max": [
        522.6489868164063,
        159.1138916015625,
        702.0888671875
      ],
      "min": [
        12.240386962890625,
        1.5671005249023438,
        1.801727294921875
      ],
      "type": "VEC3"
    },
    {
      "bufferView": 2,
      "byteOffset": 232212,
      "componentType": 5126,
      "count": 2435,
      "max": [
        1.0,
        1.0,
        0.9999995231628418
      ],
      "min": [
        -1.0,
        -1.0,
        -0.999995231628418
      ],
      "type": "VEC3"
    },
    {
      "bufferView": 3,
      "byteOffset": 135328,
      "componentType": 5126,
      "count": 2435,
      "max": [
        0.9999956488609314,
        1.0,
        0.5570172667503357,
        1.0
      ],
      "min": [
        -1.0,
        -1.0,
        -0.5114626884460449,
        -1.0
      ],
      "type": "VEC4"
    },
    {
      "bufferView": 1,
      "byteOffset": 67664,
      "componentType": 5126,
      "count": 2435,
      "max": [
        0.9973999857902527,
        0.9973000288009644
      ],
      "min": [
        0.0020000000949949026,
        0.0020000000949949026
      ],
      "type": "VEC2"
    },
    {
      "bufferView": 0,
      "byteOffset": 193416,
      "componentType": 5125,
      "count": 12666,
      "type": "SCALAR"
    }
  ],
  "asset": {
    "extras": {
      "author": "N8 (https://sketchfab.com/nathanmlange)",
      "license": "CC-BY-4.0 (http://creativecommons.org/licenses/by/4.0/)",
      "source": "https://sketchfab.com/3d-models/ornate-book-f55f8ffd11ef48629962d0f178039849",
      "title": "Ornate Book"
    },
    "generator": "Sketchfab-12.68.0",
    "version": "2.0"
  },
  "bufferViews": [
    {
      "buffer": 0,
      "byteLength": 244080,
      "name": "floatBufferViews",
      "target": 34963
    },
    {
      "buffer": 0,
      "byteLength": 87144,
      "byteOffset": 244080,
      "byteStride": 8,
      "name": "floatBufferViews",
      "target": 34962
    },
    {
      "buffer": 0,
      "byteLength": 261432,
      "byteOffset": 331224,
      "byteStride": 12,
      "name": "floatBufferViews",
      "target": 34962
    },
    {
      "buffer": 0,
      "byteLength": 174288,
      "byteOffset": 592656,
      "byteStride": 16,
      "name": "floatBufferViews",
      "target": 34962
    }
  ],
  "buffers": [
    {
      "byteLength": 766944,
      "uri": "scene.bin"
    }
  ],
  "images": [
    {
      "uri": "textures/02___Default_baseColor.png"
    },
    {
      "uri": "textures/02___Default_metallicRoughness.png"
    },
    {
      "uri": "textures/02___Default_normal.png"
    }
  ],
  "materials": [
    {
      "name": "02___Default",
      "normalTexture": {
        "index": 2
      },
      "occlusionTexture": {
        "index": 1
      },
      "pbrMetallicRoughness": {
        "baseColorTexture": {
          "index": 0
        },
        "metallicRoughnessTexture": {
          "index": 1
        },
        "roughnessFactor": 0.4
      }
    }
  ],
  "meshes": [
    {
      "name": "Object_0",
      "primitives": [
        {
          "attributes": {
            "NORMAL": 1,
            "POSITION": 0,
            "TANGENT": 2,
            "TEXCOORD_0": 3
          },
          "indices": 4,
          "material": 0,
          "mode": 4
        }
      ]
    },
    {
      "name": "Object_1",
      "primitives": [
        {
          "attributes": {
            "NORMAL": 6,
            "POSITION": 5,
            "TANGENT": 7,
            "TEXCOORD_0": 8
          },
          "indices": 9,
          "material": 0,
          "mode": 4
        }
      ]
    },
    {
      "name": "Object_2",
      "primitives": [
        {
          "attributes": {
            "NORMAL": 11,
            "POSITION": 10,
            "TANGENT": 12,
            "TEXCOORD_0": 13
          },
          "indices": 14,
          "material": 0,
          "mode": 4
        }
      ]
    },
    {
      "name": "Object_3",
      "primitives": [
        {
          "attributes": {
            "NORMAL": 16,
            "POSITION": 15,
            "TANGENT": 17,
            "TEXCOORD_0": 18
          },
          "indices": 19,
          "material": 0,
          "mode": 4
        }
      ]
    },
    {
      "name": "Object_4",
      "primitives": [
        {
          "attributes": {
            "NORMAL": 21,
            "POSITION": 20,
            "TANGENT": 22,
            "TEXCOORD_0": 23
          },
          "indices": 24,
          "material": 0,
          "mode": 4
        }
      ]
    }
  ],
  "nodes": [
    {
      "children": [
        1
      ],
      "matrix": [
        1.0,
        0.0,
        0.0,
        0.0,
        0.0,
        2.220446049250313e-16,
        -1.0,
        0.0,
        0.0,
        1.0,
        2.220446049250313e-16,
        0.0,
        0.0,
        0.0,
        0.0,
        1.0
      ],
      "name": "Sketchfab_model"
    },
    {
      "children": [
        2
      ],
      "matrix": [
        1.0,
        0.0,
        0.0,
        0.0,
        0.0,
        1.0,
        0.0,
        0.0,
        0.0,
        0.0,
        1.0,
        0.0,
        -275.85198974609375,
        -86.22260284423828,
        -351.9453125,
        1.0
      ],
      "name": "Ornate Book.obj.cleaner.gles"
    },
    {
      "children": [
        3,
        4,
        5,
        6,
        7
      ],
      "name": "Object_2"
    },
    {
      "mesh": 0,
      "name": "Object_3"
    },
    {
      "mesh": 1,
      "name": "Object_4"
    },
    {
      "mesh": 2,
      "name": "Object_5"
    },
    {
      "mesh": 3,
      "name": "Object_6"
    },
    {
      "mesh": 4,
      "name": "Object_7"
    }
  ],
  "samplers": [
    {
      "magFilter": 9729,
      "minFilter": 9987,
      "wrapS": 10497,
      "wrapT": 10497
    }
  ],
  "scene": 0,
  "scenes": [
    {
      "name": "Sketchfab_Scene",
      "nodes": [
        0
      ]
    }
  ],
  "textures": [
    {
      "sampler": 0,
      "source": 0
    },
    {
      "sampler": 0,
      "source": 1
    },
    {
      "sampler": 0,
      "source": 2
    }
  ]
}
